<?xml version="1.0" encoding="UTF-8"?>
<svg id="katman_1" xmlns="http://www.w3.org/2000/svg" version="1.1" viewBox="0 0 768 1408.08">
  <!-- Generator: Adobe Illustrator 29.3.1, SVG Export Plug-In . SVG Version: 2.1.0 Build 151)  -->
  <defs>
    <style>
      .st0 {
        fill: #cf7130;
      }

      .st1, .st2 {
        fill: #41535e;
      }

      .st1, .st3 {
        display: none;
      }

      .st4 {
        fill: #fbbc37;
      }
    </style>
  </defs>
  <g>
    <g>
      <path class="st0" d="M314.47,770.57c-1.05,5.61,2.93,10.97,8.88,11.96l124.27,20.66c5.95.99,11.63-2.76,12.68-8.38l.72-3.87c1.05-5.62-2.93-10.97-8.88-11.96l-124.27-20.65c-5.96-.99-11.63,2.76-12.69,8.37l-.73,3.87Z"/>
      <path class="st0" d="M314.47,741.57c-1.05,5.62,2.93,10.97,8.88,11.96l124.27,20.66c5.95.99,11.63-2.76,12.68-8.38l.72-3.87c1.05-5.62-2.93-10.97-8.88-11.96l-124.27-20.66c-5.96-.99-11.63,2.76-12.69,8.37l-.73,3.87Z"/>
      <path class="st0" d="M314.47,712.57c-1.05,5.61,2.93,10.97,8.88,11.96l124.27,20.66c5.95.99,11.63-2.76,12.68-8.37l.72-3.87c1.05-5.62-2.93-10.97-8.88-11.96l-124.27-20.66c-5.96-.99-11.63,2.76-12.69,8.37l-.73,3.87Z"/>
      <path class="st1" d="M322.28,788.63c3.88.19,7.19-2.63,7.39-6.3l4.11-76.42c.2-3.66-2.79-6.78-6.68-6.97l-2.68-.13c-3.89-.19-7.19,2.63-7.39,6.3l-4.11,76.42c-.2,3.66,2.79,6.78,6.68,6.97l2.68.13Z"/>
      <path class="st4" d="M348.16,796.41c0,17.7,17.97,32.04,40.15,32.04,18.96,0,34.84-10.49,39.04-24.6l-78.56-13.06c-.41,1.82-.63,3.7-.63,5.62Z"/>
    </g>
    <g>
      <path class="st2" d="M324.67,654.18c-11.52,0-22.07-3.27-30.45-9.45-9.29,2.23-32.71,5.59-52.48-10.39-16.5-13.33-23.23-31.35-20.58-55.1,1.23-11.01,7.82-21.77,18.08-29.53,7.58-5.73,16.39-9.2,25.07-10.01,0-7.28,1.39-18.35,8.55-26.33,5.62-6.26,13.52-9.5,23.48-9.63,11.83-.17,31.69,3.79,32.3,31.93.08,3.61-2.96,6.59-6.79,6.67-3.77.07-6.99-2.79-7.07-6.4-.3-13.57-5.78-19.32-18.25-19.13-5.84.08-10.12,1.7-13.07,4.97-6.04,6.69-5.62,19.21-4.95,23.47.32,2.01-.37,4.05-1.87,5.51-1.5,1.46-3.62,2.19-5.77,1.96-7.5-.81-15.87,1.8-22.97,7.17-7.4,5.59-12.12,13.14-12.97,20.7-2.2,19.68,2.68,33.2,15.81,43.81,18.47,14.92,41.74,7.23,42.72,6.9,2.46-.84,5.23-.31,7.13,1.37,7.12,6.31,17.2,9.22,28.38,8.22,12.29-1.11,24.04-6.79,29.95-14.48,14.61-19.04,12.78-44.25,12.76-44.5-.01-.16-.02-.33-.02-.49v-157.44c0-3.61,3.1-6.53,6.93-6.53s6.93,2.93,6.93,6.53v157.22c.21,3.23,1.48,30.9-15.38,52.87-8.26,10.76-23.53,18.36-39.86,19.83-1.9.17-3.78.26-5.63.26Z"/>
      <path class="st2" d="M228.06,586.47c-.49,0-.99-.05-1.5-.15-11.14-2.31-32.21-14.42-32.21-43.72,0-19.44,11.94-32.73,24.26-39.16-4.72-4.89-9.83-11.96-11.73-20.91-2.31-10.89.54-21.97,8.48-32.93,9.32-12.87,31.34-19.16,51.24-14.65,17.28,3.92,28.36,14.9,30.41,30.12.48,3.58-2.21,6.85-6,7.31-3.79.45-7.27-2.08-7.75-5.66-1.76-13.06-13.23-17.55-19.9-19.07-14.12-3.21-30.51.97-36.55,9.31-5.73,7.92-7.87,15.62-6.36,22.91,2.59,12.47,15.01,20.35,15.14,20.43,2.37,1.48,3.56,4.19,2.96,6.82-.59,2.63-2.82,4.65-5.63,5.09-10.26,1.61-24.72,12.11-24.72,30.39,0,26.23,21.11,30.91,21.32,30.96,3.74.78,6.1,4.26,5.28,7.79-.71,3.05-3.58,5.13-6.76,5.13Z"/>
      <path class="st2" d="M333.29,478.2c-1.56,0-3.12-.09-4.67-.28-13.63-1.62-23.57-10.57-25.95-23.35-2.42-13,3.59-26.18,14.29-31.34,7.48-3.61,14.47-4.34,20.75-2.18,8.79,3.02,12.37,10.54,12.74,11.39,1.49,3.33-.17,7.16-3.7,8.56-3.5,1.39-7.53-.14-9.04-3.41-.09-.18-1.68-3.25-4.85-4.29-2.5-.82-5.73-.29-9.6,1.57-5.25,2.53-8.3,10.19-6.95,17.45.78,4.19,3.64,11.4,14.03,12.64,8.07.96,16.62-2.15,24.09-8.75,11.75-10.39,18.36-27.41,17.24-44.41-1.18-18.01-14.83-25.14-20.64-27.37-10.88-4.17-23.5-3.16-30.02,2.41-9.26,7.91-6.77,18.12-6.75,18.23.71,2.79-.59,5.69-3.2,7.15-2.62,1.46-5.94,1.15-8.19-.78-.54-.45-14.16-11.58-30.33-3.37-7.93,4.02-15.36,17.11-13.54,31.23.46,3.58-2.24,6.84-6.04,7.27-3.8.44-7.25-2.12-7.72-5.7-2.33-18.08,6.58-37.13,20.72-44.31,13.87-7.04,26.35-4.85,34.85-1.41,1.17-5.61,4.12-12.21,10.89-17.99,10.59-9.05,28.5-10.99,44.55-4.83,17.42,6.68,28.08,20.77,29.25,38.66,1.38,21.1-6.69,41.57-21.6,54.75-9.19,8.13-19.92,12.46-30.64,12.46Z"/>
      <path class="st2" d="M374.21,618.52c-.6,0-1.21-.07-1.82-.23-3.69-.95-5.87-4.53-4.87-8.01h0c1.71-5.97,4.98-23.35-.35-31.89-1.41-2.26-3.29-3.61-5.92-4.23-6.8-1.6-11.91-.77-15.2,2.49-4.17,4.13-4.68,11.12-3.79,13.87,1.09,3.39-.87,6.98-4.43,8.1-3.56,1.12-7.42-.63-8.71-3.95-.59-1.46-6.25-14.53-20.1-12.44-9.42,1.42-11.57,9.03-12.01,11.32-.9,4.78.69,9.29,3.87,10.98,3.34,1.77,4.52,5.75,2.65,8.9-1.87,3.15-6.1,4.27-9.44,2.5-8.37-4.43-12.68-14.34-10.73-24.67,2.21-11.68,11.2-20.08,23.46-21.93,10.08-1.52,18.03,1.49,23.88,5.95,1.27-2.76,3.01-5.37,5.28-7.62,4.8-4.76,13.65-9.69,28.61-6.16,6.22,1.47,11.24,5.03,14.52,10.31,9.19,14.78,2.55,39.18,1.76,41.91-.84,2.91-3.63,4.82-6.68,4.82Z"/>
      <path class="st2" d="M378.74,558.21h-.03c-3.83-.02-6.92-2.95-6.9-6.56.08-17.88.16-34.78-4.74-39.42-.71-.68-1.9-1.45-4.79-1.45-8.85,0-9.54,6.59-9.54,8.6,0,3.61-3.1,6.53-6.93,6.53h0c-3.83,0-6.93-2.93-6.93-6.53,0-8.71,6.23-21.67,23.4-21.67,5.98,0,10.9,1.78,14.61,5.3,8.97,8.49,8.89,25.36,8.78,48.7-.02,3.6-3.12,6.51-6.93,6.51Z"/>
    </g>
    <g>
      <path class="st2" d="M450.84,654.18c-1.85,0-3.73-.08-5.63-.26-16.33-1.47-31.6-9.07-39.86-19.83-16.86-21.97-15.59-49.64-15.37-52.87v-157.22c0-3.61,3.1-6.53,6.93-6.53s6.93,2.93,6.93,6.53v157.44c0,.16,0,.33-.02.49-.02.24-1.75,25.58,12.76,44.5,5.9,7.69,17.65,13.37,29.95,14.48,11.18,1,21.26-1.91,28.38-8.22,1.91-1.7,4.68-2.23,7.15-1.37.96.33,24.22,8.02,42.69-6.91,13.13-10.61,18.01-24.12,15.81-43.81-.84-7.56-5.57-15.11-12.97-20.7-7.1-5.37-15.49-7.99-22.97-7.17-2.15.23-4.28-.49-5.78-1.96-1.5-1.47-2.18-3.51-1.86-5.52.67-4.24,1.09-16.77-4.95-23.46-2.95-3.27-7.23-4.9-13.07-4.97-.17,0-.35,0-.51,0-12.14,0-17.45,5.75-17.74,19.13-.08,3.61-3.2,6.47-7.07,6.4-3.83-.07-6.87-3.06-6.79-6.67.61-28.14,20.42-32.1,32.3-31.93,9.96.13,17.86,3.37,23.48,9.63,7.17,7.98,8.55,19.05,8.55,26.33,8.69.81,17.5,4.28,25.07,10.01,10.26,7.76,16.85,18.52,18.08,29.53,2.65,23.74-4.08,41.77-20.58,55.1-19.77,15.97-43.19,12.61-52.48,10.39-8.38,6.18-18.94,9.45-30.45,9.45Z"/>
      <path class="st2" d="M547.45,586.47c-3.18,0-6.05-2.08-6.76-5.13-.82-3.51,1.52-6.98,5.24-7.78,1-.23,21.37-5.17,21.37-30.97,0-18.29-14.45-28.78-24.72-30.39-2.82-.44-5.06-2.47-5.65-5.11-.59-2.64.61-5.34,3-6.81.1-.06,12.52-7.94,15.11-20.42,1.51-7.28-.62-14.99-6.35-22.91-6.04-8.34-22.43-12.51-36.55-9.31-6.68,1.52-18.15,6.01-19.9,19.07-.48,3.58-3.95,6.12-7.75,5.66-3.8-.45-6.48-3.72-6-7.31,2.05-15.22,13.13-26.2,30.41-30.12,19.9-4.52,41.93,1.78,51.24,14.65,7.94,10.96,10.79,22.04,8.48,32.93-1.9,8.95-7.01,16.02-11.73,20.91,12.33,6.43,24.26,19.73,24.26,39.16,0,29.3-21.07,41.41-32.21,43.72-.5.1-1,.15-1.5.15Z"/>
      <path class="st2" d="M442.22,478.2c-10.72,0-21.44-4.33-30.64-12.46-14.91-13.18-22.98-33.65-21.6-54.75,1.17-17.89,11.83-31.98,29.25-38.67,16.06-6.16,33.96-4.22,44.55,4.83,6.77,5.78,9.72,12.38,10.89,17.99,8.49-3.45,20.98-5.63,34.84,1.41,14.15,7.18,23.06,26.23,20.73,44.31-.46,3.58-3.91,6.13-7.72,5.7-3.8-.44-6.51-3.69-6.04-7.27,1.82-14.12-5.61-27.21-13.54-31.23-16.37-8.31-30.19,3.26-30.33,3.37-2.25,1.93-5.58,2.25-8.19.78-2.62-1.46-3.92-4.36-3.2-7.15.08-.37,2.32-10.48-6.75-18.23-6.51-5.57-19.14-6.58-30.02-2.41-5.81,2.23-19.46,9.36-20.64,27.37-1.12,17,5.49,34.02,17.24,44.41,7.47,6.6,16.03,9.71,24.09,8.75,10.39-1.24,13.25-8.45,14.03-12.64,1.35-7.26-1.7-14.92-6.95-17.45-3.86-1.86-7.09-2.39-9.59-1.57-3.25,1.07-4.84,4.27-4.85,4.3-1.48,3.33-5.53,4.85-9.06,3.44-3.53-1.4-5.16-5.27-3.68-8.6.38-.85,3.95-8.37,12.74-11.39,6.29-2.16,13.27-1.43,20.75,2.18,10.7,5.16,16.71,18.34,14.29,31.34-2.38,12.78-12.32,21.72-25.95,23.35-1.55.18-3.12.28-4.67.28Z"/>
      <path class="st2" d="M401.3,618.52c-3.05,0-5.85-1.91-6.69-4.82-.79-2.73-7.43-27.13,1.76-41.91,3.28-5.28,8.3-8.84,14.52-10.31,14.95-3.53,23.81,1.41,28.61,6.16,2.27,2.25,4.01,4.87,5.28,7.62,5.85-4.47,13.79-7.47,23.88-5.95,12.26,1.85,21.25,10.25,23.46,21.93,1.95,10.32-2.36,20.23-10.73,24.67-3.34,1.77-7.56.65-9.44-2.5-1.87-3.15-.69-7.13,2.65-8.9,3.18-1.69,4.77-6.2,3.87-10.98-.43-2.3-2.59-9.9-12.01-11.32-13.82-2.07-19.51,10.98-20.11,12.48-1.32,3.3-5.19,5.03-8.73,3.89-3.54-1.14-5.49-4.7-4.4-8.07.89-2.75.38-9.73-3.79-13.87-3.28-3.26-8.39-4.09-15.2-2.49-2.63.62-4.51,1.97-5.92,4.24-5.32,8.55-1.94,26.32-.34,31.87,1,3.48-1.18,7.07-4.87,8.02-.61.15-1.22.23-1.82.23Z"/>
      <path class="st2" d="M396.77,558.21c-3.81,0-6.91-2.91-6.93-6.51-.11-23.34-.19-40.2,8.78-48.7,3.71-3.52,8.63-5.3,14.62-5.3,17.17,0,23.4,12.96,23.4,21.67,0,3.61-3.1,6.53-6.93,6.53s-6.9-2.89-6.93-6.47c-.06-2.61-1.13-8.66-9.54-8.66-2.89,0-4.08.78-4.79,1.45-4.9,4.64-4.82,21.53-4.74,39.42.02,3.61-3.07,6.55-6.9,6.56h-.03Z"/>
    </g>
    <path class="st4" d="M436.74,716.91c-.38,0-.76-.03-1.14-.09-3.78-.59-6.33-3.95-5.71-7.51.24-1.36,6.32-33.68,46.45-57.92,3.22-1.95,7.51-1.06,9.58,1.98,2.06,3.04,1.13,7.08-2.1,9.03-35,21.14-40.21,48.78-40.26,49.05-.56,3.2-3.5,5.47-6.83,5.47Z"/>
    <path class="st4" d="M333.43,698.24c-2.73,0-5.32-1.53-6.42-4.06-.14-.31-9.87-21.96-32.74-31.3-3.51-1.43-5.13-5.28-3.61-8.59,1.52-3.31,5.61-4.83,9.11-3.4,28.24,11.53,39.6,37.27,40.07,38.36,1.44,3.34-.27,7.15-3.81,8.51-.85.33-1.74.48-2.61.48Z"/>
    <path class="st4" d="M395.29,706.38h0c-2.39,0-4.33-1.83-4.33-4.08,0-.83.13-20.39,11.58-35.66,1.38-1.84,4.09-2.28,6.04-.98,1.95,1.3,2.42,3.85,1.04,5.69-9.82,13.1-9.99,30.77-9.99,30.95,0,2.25-1.94,4.08-4.33,4.08Z"/>
    <path class="st4" d="M408.36,673.08c-7.26,0-13.16-5.57-13.16-12.41s5.91-12.41,13.16-12.41,13.17,5.57,13.17,12.41-5.91,12.41-13.17,12.41ZM408.36,656.43c-2.48,0-4.5,1.9-4.5,4.24s2.02,4.24,4.5,4.24,4.5-1.9,4.5-4.24-2.02-4.24-4.5-4.24Z"/>
    <path class="st4" d="M380.21,706.38c-2.39,0-4.33-1.82-4.33-4.08h0c0-.18-.16-17.85-9.99-30.95-1.38-1.84-.92-4.39,1.04-5.69,1.95-1.3,4.66-.86,6.04.98,11.44,15.27,11.58,34.83,11.58,35.66,0,2.26-1.94,4.08-4.33,4.08Z"/>
    <path class="st4" d="M367.15,673.08c-7.26,0-13.16-5.57-13.16-12.41s5.91-12.41,13.16-12.41,13.16,5.57,13.16,12.41-5.91,12.41-13.16,12.41ZM367.15,656.43c-2.48,0-4.5,1.9-4.5,4.24s2.02,4.24,4.5,4.24,4.5-1.9,4.5-4.24-2.02-4.24-4.5-4.24Z"/>
    <g>
      <path class="st4" d="M542.66,511.73c-2.61-.41-4.69-2.29-5.23-4.74-.54-2.45.56-4.95,2.78-6.31.11-.07,12.7-8.04,15.34-20.72,1.54-7.42-.62-15.25-6.43-23.28-6.15-8.49-22.78-12.75-37.09-9.5-6.81,1.55-18.49,6.13-20.29,19.47-.44,3.32-3.66,5.66-7.18,5.25-3.52-.42-6.01-3.45-5.56-6.77,2.02-15.01,12.97-25.84,30.02-29.72,2.72-.62,5.48-1.01,8.24-1.23-.28-12.25-6.98-22.94-14.07-26.54-16.49-8.37-30.35,2.98-30.94,3.46-2.1,1.76-5.17,2.04-7.58.67-2.41-1.36-3.61-4.03-2.95-6.6.09-.39,2.4-10.74-6.9-18.69-6.66-5.69-19.51-6.74-30.55-2.5-12.48,4.79-20.12,14.91-20.96,27.78-1.14,17.4,5.36,34.15,17.4,44.79,7.58,6.7,16.28,9.85,24.5,8.88,10.71-1.28,13.66-8.71,14.46-13.03,1.39-7.45-1.78-15.34-7.22-17.96-4.04-1.95-7.44-2.48-10.1-1.56-3.37,1.16-5,4.42-5.01,4.45-1.38,3.08-5.14,4.53-8.41,3.23-3.27-1.3-4.8-4.85-3.43-7.93.37-.83,3.86-8.17,12.45-11.13,6.15-2.12,13-1.39,20.35,2.16,10.5,5.07,16.4,18.03,14.02,30.83-2.34,12.56-12.11,21.36-25.51,22.95-1.53.18-3.07.27-4.61.27-10.59,0-21.19-4.29-30.29-12.33-3.2-2.83-6.06-6.02-8.6-9.46v44.39c2.85-1.41,6.16-2.13,9.9-2.13,16.79,0,22.89,12.67,22.89,21.19,0,3.34-2.87,6.06-6.42,6.06s-6.39-2.68-6.42-6c-.06-2.75-1.17-9.13-10.05-9.13-3.07,0-4.37.85-5.15,1.59-3.28,3.1-4.39,11.36-4.75,21.68v31.71c2.27-1.52,4.85-2.66,7.68-3.33,14.71-3.47,23.41,1.36,28.12,6.03,2.39,2.37,4.18,5.15,5.45,8.07,5.81-4.61,13.79-7.8,24-6.26,12.04,1.82,20.87,10.07,23.04,21.54,1.92,10.12-2.29,19.83-10.48,24.17-3.09,1.64-7.01.6-8.74-2.31-1.74-2.92-.64-6.61,2.45-8.24,3.37-1.78,5.06-6.5,4.12-11.48-.45-2.38-2.67-10.24-12.43-11.71-14.69-2.21-20.41,12.14-20.65,12.75-1.19,3.08-4.77,4.71-8.07,3.66-3.3-1.04-5.12-4.37-4.11-7.51,1.05-3.24.26-10.21-3.9-14.34-3.42-3.39-8.7-4.27-15.69-2.62-2.78.65-4.76,2.07-6.24,4.46-5.33,8.57-2.1,26.11-.46,31.97,1.92,5.58,4.71,11.33,8.75,16.59,5.98,7.8,17.88,13.56,30.31,14.68,11.33,1.02,21.54-1.95,28.77-8.35,1.78-1.57,4.34-2.06,6.63-1.26.97.33,24.5,8.12,43.2-6.99,13.1-10.58,18.18-24.63,15.99-44.22-.86-7.69-5.65-15.35-13.15-21.02-7.21-5.45-15.73-8.1-23.35-7.27-1.99.21-3.97-.46-5.36-1.82-1.39-1.36-2.02-3.25-1.72-5.12.68-4.3,1.1-17.01-5.06-23.84-3.05-3.38-7.45-5.07-13.45-5.14-12.9-.17-18.46,5.69-18.77,19.6-.07,3.34-3.03,6.03-6.55,5.93-3.55-.07-6.36-2.83-6.29-6.18.61-27.72,20.21-31.64,31.79-31.46,9.81.13,17.58,3.31,23.1,9.46,7.22,8.04,8.48,19.26,8.43,26.46,8.74.72,17.63,4.17,25.26,9.94,7.74,5.85,13.36,13.43,16.14,21.52,6.45-3.48,15.71-11.52,15.71-29.02,0-18.57-14.7-29.23-25.14-30.87Z"/>
      <path class="st4" d="M367.15,656.13c-2.66,0-4.82,2.04-4.82,4.54s2.16,4.54,4.82,4.54,4.82-2.04,4.82-4.54-2.16-4.54-4.82-4.54Z"/>
      <path class="st4" d="M408.36,656.13c-2.66,0-4.82,2.04-4.82,4.54s2.16,4.54,4.82,4.54,4.82-2.04,4.82-4.54-2.16-4.54-4.82-4.54Z"/>
      <path class="st4" d="M346.56,440.56c-3.25,1.29-6.98-.13-8.38-3.17-.09-.18-1.75-3.43-5.14-4.55-2.64-.87-6.01-.33-10,1.59-5.43,2.62-8.6,10.51-7.22,17.96.8,4.32,3.75,11.75,14.46,13.03,8.22.98,16.92-2.18,24.5-8.88,12.04-10.65,18.54-27.39,17.4-44.79-.85-12.87-8.48-23-20.96-27.78-11.05-4.23-23.89-3.18-30.55,2.5-9.3,7.95-6.99,18.31-6.89,18.75.61,2.57-.62,5.25-3.04,6.58-2.42,1.32-5.46,1.05-7.54-.73-.56-.47-14.42-11.81-30.91-3.44-7.09,3.6-13.79,14.29-14.07,26.54,2.76.22,5.52.62,8.24,1.23,17.06,3.87,28,14.7,30.02,29.72.45,3.32-2.04,6.35-5.56,6.77-3.52.42-6.73-1.93-7.18-5.25-1.8-13.34-13.48-17.92-20.29-19.47-14.3-3.25-30.94,1.02-37.08,9.5-5.81,8.03-7.98,15.86-6.43,23.28,2.64,12.68,15.23,20.65,15.35,20.73,2.2,1.37,3.3,3.88,2.75,6.32-.55,2.44-2.61,4.31-5.22,4.72-10.44,1.64-25.14,12.3-25.14,30.87,0,17.51,9.26,25.54,15.71,29.02,2.78-8.09,8.4-15.67,16.14-21.52,7.63-5.77,16.53-9.23,25.26-9.94-.05-7.2,1.22-18.42,8.43-26.46,5.52-6.15,13.29-9.33,23.1-9.46,11.57-.18,31.18,3.73,31.79,31.46.07,3.34-2.74,6.11-6.29,6.18-3.59.05-6.48-2.59-6.55-5.93-.3-13.91-5.98-19.77-18.77-19.6-6,.08-10.4,1.76-13.45,5.14-6.16,6.83-5.74,19.54-5.06,23.85.29,1.86-.35,3.75-1.74,5.11-1.39,1.35-3.36,2.03-5.35,1.81-7.63-.83-16.14,1.83-23.35,7.27-7.5,5.67-12.3,13.33-13.15,21.02-2.19,19.59,2.89,33.64,15.99,44.22,18.86,15.24,42.96,7.08,43.2,6.99,2.29-.8,4.85-.31,6.63,1.26,7.23,6.4,17.44,9.36,28.77,8.35,12.43-1.12,24.33-6.88,30.31-14.68,4.04-5.26,6.82-11.01,8.75-16.59,1.74-6.25,4.87-23.41-.47-31.98-1.48-2.38-3.47-3.8-6.23-4.45-6.99-1.65-12.27-.77-15.69,2.62-4.16,4.13-4.95,11.1-3.91,14.34,1.01,3.14-.81,6.46-4.11,7.51-3.3,1.04-6.88-.58-8.07-3.66-.23-.58-6.16-14.94-20.65-12.75-9.75,1.47-11.98,9.34-12.43,11.71-.94,4.97.75,9.69,4.12,11.48,3.09,1.64,4.19,5.33,2.45,8.24-1.74,2.91-5.65,3.95-8.75,2.31-8.18-4.33-12.39-14.04-10.48-24.17,2.17-11.47,11-19.73,23.04-21.54,10.21-1.54,18.2,1.65,24,6.26,1.27-2.92,3.06-5.7,5.45-8.07,4.71-4.66,13.4-9.5,28.12-6.03,2.84.67,5.41,1.8,7.68,3.33v-31.7c-.36-10.32-1.47-18.58-4.75-21.68-.78-.74-2.08-1.59-5.15-1.59-9.56,0-10.05,7.57-10.05,9.08,0,3.34-2.88,6.05-6.42,6.05h0c-3.55,0-6.42-2.71-6.42-6.06,0-8.52,6.1-21.19,22.89-21.19,3.74,0,7.05.72,9.9,2.13v-44.39c-2.54,3.44-5.4,6.63-8.6,9.46-9.1,8.05-19.7,12.33-30.29,12.33-1.54,0-3.08-.09-4.61-.27-13.4-1.6-23.17-10.39-25.51-22.95-2.38-12.8,3.52-25.77,14.02-30.83,7.35-3.55,14.2-4.27,20.35-2.16,8.59,2.95,12.08,10.3,12.45,11.13,1.38,3.08-.16,6.63-3.43,7.93Z"/>
    </g>
  </g>
  <g>
    <path class="st2" d="M136.99,698.08v51.13c0,9.01,4.21,13.51,12.64,13.51,3.28,0,6.05-1.18,8.3-3.55,2.25-2.37,3.37-5.21,3.37-8.53,0-8.13-4.25-12.19-12.74-12.19-1.26,0-2.36.11-3.31.34l-4.94,1.2v-19.01l4.81-.69c.78-.08,1.67-.17,2.67-.29h1.56c9.92,0,17.98,2.96,24.18,8.87,5.98,5.76,8.97,13.05,8.97,21.87s-3.1,15.61-9.3,21.41c-6.37,5.95-14.32,8.93-23.86,8.93-6.24,0-12.09-1.56-17.55-4.69-5.76-3.24-9.95-7.39-12.55-12.42-.91-1.75-1.63-4.05-2.15-6.87-.43-2.33-.65-5.78-.65-10.36v-48.67h20.54Z"/>
    <path class="st2" d="M190.23,706.33c0-2.94,1.18-5.44,3.54-7.5,2.36-2.06,5.21-3.09,8.55-3.09s6.13,1.04,8.52,3.12c2.38,2.08,3.57,4.57,3.57,7.47s-1.17,5.5-3.51,7.56c-2.34,2.06-5.2,3.09-8.58,3.09s-6.24-1.04-8.58-3.12-3.51-4.59-3.51-7.53ZM191.79,780.07v-58.05h21.06v58.05h-21.06Z"/>
    <path class="st2" d="M225.07,780.07v-81.99h21.06v81.99h-21.06Z"/>
    <path class="st2" d="M256.34,763.64h24.9c2.51,0,3.77-.74,3.77-2.24,0-.96-.6-1.72-1.81-2.3l-9.62-3.54c-10.75-3.97-16.13-9.79-16.13-17.46,0-5.5,2.41-9.65,7.22-12.48,4.16-2.4,9.51-3.61,16.06-3.61h22.49v15.63h-22.23c-2.12,0-3.18.74-3.18,2.23,0,1.03.58,1.76,1.75,2.18l9.17,3.43c12,4.5,18.01,10.52,18.01,18.04,0,5.8-2.71,10.27-8.12,13.4-3.64,2.1-10.44,3.15-20.41,3.15h-21.84v-16.43Z"/>
  </g>
  <g>
    <path class="st2" d="M476.56,774.39v-30.63c0-8.09,2.36-14.75,7.09-19.98,5.16-5.73,12.2-8.59,21.13-8.59,7.71,0,14.19,2.54,19.44,7.62,5.5-5.08,11.81-7.62,18.92-7.62,9.19,0,16.4,2.79,21.65,8.36,4.9,5.23,7.34,11.97,7.34,20.21v30.63h-20.54v-33.44c0-2.33-.77-4.27-2.3-5.84-1.53-1.56-3.59-2.35-6.18-2.35s-4.62.79-6.22,2.38c-1.6,1.58-2.4,3.52-2.4,5.81v33.44h-20.35v-33.44c0-2.33-.8-4.27-2.41-5.84-1.6-1.56-3.7-2.35-6.3-2.35s-4.61.79-6.17,2.38c-1.56,1.58-2.34,3.52-2.34,5.81v33.44h-20.35Z"/>
    <path class="st2" d="M627.24,734.03h-9.04c-4.46,0-8.17.9-11.12,2.69-3.34,2.06-5.01,4.96-5.01,8.7s1.67,6.66,5.01,8.64c2.9,1.76,6.61,2.63,11.12,2.63h9.04v17.69h-7.74c-10.96,0-19.96-2.38-26.98-7.16-7.76-5.23-11.64-12.54-11.64-21.93s3.9-16.58,11.7-21.81c7.06-4.77,16.03-7.16,26.91-7.16h7.74v17.69Z"/>
    <path class="st2" d="M643.17,741.59c-6.07,0-9.1-2.15-9.1-6.46,0-2.55,1.69-5.28,5.07-8.18l18.53-15.84c.69-.61,1.32-1.33,1.89-2.17.43-.84.65-1.56.65-2.17,0-1.26-.56-2.29-1.69-3.09-1.13-.8-2.51-1.2-4.16-1.2-1.52,0-2.83.41-3.93,1.23-1.1.82-1.66,1.87-1.66,3.17,0,1.75,1.15,3.31,3.45,4.68l-9.43,8.1c-5.5-3.28-8.26-7.47-8.26-12.57,0-4.72,2.08-8.55,6.24-11.48,3.86-2.7,8.56-4.06,14.11-4.06s10.01,1.3,13.78,3.89c4.12,2.82,6.18,6.55,6.18,11.2,0,4.95-3.66,10.2-10.99,15.72l-.45.34-9.75,7.49h22.23v11.39h-32.7Z"/>
  </g>
  <g class="st3">
    <path class="st0" d="M134.89,869.87v-27.41h7.74v27.41h-7.74Z"/>
    <path class="st0" d="M146.41,864.38h8.32c.84,0,1.26-.25,1.26-.75,0-.32-.2-.58-.61-.77l-3.22-1.19c-3.59-1.33-5.39-3.27-5.39-5.84,0-1.84.8-3.23,2.41-4.17,1.39-.8,3.18-1.21,5.37-1.21h7.52v5.23h-7.43c-.71,0-1.06.25-1.06.75,0,.34.2.59.59.73l3.06,1.15c4.01,1.51,6.02,3.52,6.02,6.03,0,1.94-.91,3.43-2.72,4.48-1.22.7-3.49,1.05-6.82,1.05h-7.3v-5.49ZM149.82,878.26v-2.43c1.27.28,2.41.5,3.41.65.81.11,1.53.17,2.15.17,1.45,0,2.17-.48,2.17-1.44,0-.87-.88-1.3-2.63-1.3h-1.59l1.5-6.13h2.16s-.93,3.81-.93,3.81h.2c3.39,0,5.08,1.23,5.08,3.7s-1.91,3.79-5.74,3.79c-1.19,0-2.57-.15-4.13-.46-.52-.1-1.07-.22-1.65-.36Z"/>
    <path class="st0" d="M166.54,869.87v-19.41h7.04v19.41h-7.04Z"/>
    <path class="st0" d="M177.66,869.87v-27.41h6.91v14.24h1.28c1.24,0,2.3-1,3.19-2.99l1.45-3.25h7.3l-2.59,5.88c-.49,1.12-1.44,1.9-2.85,2.32,3.26.68,4.89,2.69,4.89,6.05v5.17h-6.87v-4.42c0-2.07-1.11-3.1-3.32-3.1h-2.49v7.52h-6.91Z"/>
    <path class="st0" d="M213.33,869.87v-27.41h6.91v9.27c1.42-1.1,3.09-1.65,5.02-1.65,2.81,0,4.95,1.01,6.41,3.04,1.25,1.71,1.87,3.88,1.87,6.51v10.24h-6.87v-10.82c0-.87-.28-1.59-.85-2.16-.61-.6-1.4-.9-2.38-.9s-1.73.3-2.32.89-.88,1.32-.88,2.17v10.82h-6.91Z"/>
    <path class="st0" d="M237.41,869.87v-19.41h7.04v19.41h-7.04Z"/>
    <path class="st0" d="M251.95,869.87c-3.17,0-4.76-1.08-4.76-3.25,0-1,.62-2.1,1.87-3.33l7.4-7.26h-7.99v-5.57h11.71c3.74,0,5.61,1.15,5.61,3.45,0,1.11-.58,2.23-1.74,3.35l-7.04,6.85h8.74v5.76h-13.8Z"/>
    <path class="st0" d="M268.62,869.87v-19.41h7.04v19.41h-7.04Z"/>
    <path class="st0" d="M292.81,869.87v-10.82c0-.88-.29-1.61-.86-2.19-.57-.58-1.36-.87-2.34-.87s-1.76.29-2.34.88c-.59.59-.88,1.31-.88,2.18v10.82h-6.87v-9.84c0-2.88.85-5.23,2.56-7.04,1.83-1.94,4.34-2.91,7.54-2.91,2.26,0,4.29.58,6.1,1.75,1.8,1.17,3,2.7,3.58,4.58.29.98.43,2.19.43,3.62v9.84h-6.91Z"/>
    <path class="st0" d="M324.74,842.46v16.12c0,1.72-.08,3-.24,3.83s-.41,1.57-.74,2.22c-.91,1.75-2.27,3.12-4.06,4.11s-3.8,1.48-6,1.48c-3.27,0-5.94-.94-8-2.83s-3.09-4.29-3.09-7.2,1.03-5.28,3.1-7.18c2.06-1.9,4.73-2.85,7.99-2.85h.83c.49.05,1.23.15,2.2.31v6.36l-1.57-.35c-.33-.07-.73-.11-1.19-.11-1.32,0-2.36.35-3.12,1.05-.76.7-1.14,1.63-1.14,2.78s.34,2.06,1.02,2.74c.73.72,1.74,1.09,3.03,1.09,2.75,0,4.12-1.43,4.12-4.3v-17.25h6.87Z"/>
    <path class="st0" d="M342.85,869.87v-9.27c0-2.88-1.42-4.32-4.25-4.32-1.22,0-2.19.37-2.92,1.12-.67.71-1,1.61-1,2.71,0,1.18.38,2.12,1.13,2.82.75.7,1.8,1.05,3.13,1.05.42,0,.79-.04,1.11-.11l1.65-.39v6.34l-1.61.23-1.41.08c-3.03.17-5.68-.78-7.95-2.83-2.09-1.87-3.13-4.27-3.13-7.19s1.03-5.27,3.1-7.17c2.06-1.9,4.73-2.85,7.99-2.85,2.2,0,4.2.5,5.99,1.49,1.79,1,3.15,2.37,4.08,4.12.65,1.24.98,3.26.98,6.07v8.12h-6.87Z"/>
    <path class="st0" d="M373.63,869.43c-1.94-.45-3.6-1.19-4.96-2.22-2.35-1.79-3.52-4.14-3.52-7.06,0-3.12,1.3-5.55,3.91-7.29,2.36-1.6,5.36-2.39,9-2.39h2.59v5.92h-3.02c-1.49,0-2.73.3-3.72.9-1.12.69-1.67,1.66-1.67,2.91s.56,2.23,1.67,2.89c.97.59,2.21.88,3.72.88h3.02v5.92h-2.59c-.83,0-1.61-.04-2.35-.11l-.46,1.84h.19c3.38,0,5.06,1.23,5.06,3.69s-1.91,3.79-5.74,3.79c-1.19,0-2.57-.15-4.13-.46-.52-.1-1.07-.22-1.65-.36v-2.43c1.27.28,2.41.5,3.41.65.81.11,1.53.17,2.15.17,1.45,0,2.17-.48,2.17-1.44,0-.87-.88-1.3-2.63-1.3h-.98c-.28,0-.48.01-.61.04l1.12-4.51Z"/>
    <path class="st0" d="M397.97,869.87v-9.27c0-2.88-1.42-4.32-4.25-4.32-1.22,0-2.19.37-2.92,1.12-.67.71-1,1.61-1,2.71,0,1.18.38,2.12,1.13,2.82.75.7,1.8,1.05,3.13,1.05.42,0,.79-.04,1.11-.11l1.65-.39v6.34l-1.61.23-1.41.08c-3.03.17-5.68-.78-7.95-2.83-2.09-1.87-3.13-4.27-3.13-7.19s1.03-5.27,3.1-7.17c2.06-1.9,4.73-2.85,7.99-2.85,2.2,0,4.2.5,5.99,1.49,1.79,1,3.15,2.37,4.08,4.12.65,1.24.98,3.26.98,6.07v8.12h-6.87Z"/>
    <path class="st0" d="M429.81,868.78c0,3.16-1,5.59-2.99,7.27-1.99,1.68-4.79,2.53-8.4,2.53-2.65,0-5.24-.29-7.76-.86v-5.9c2.61.71,4.89,1.07,6.84,1.07,2.13,0,3.59-.39,4.38-1.17.71-.73,1.07-2.05,1.07-3.98v-7.15c0-2.88-1.4-4.32-4.21-4.32-1.22,0-2.19.38-2.92,1.13-.67.71-1,1.62-1,2.71,0,1.18.38,2.13,1.13,2.83s1.8,1.05,3.13,1.05c.42,0,.79-.04,1.11-.11l1.65-.4v6.16l-1.7.23-1.37.08c-3,.17-5.64-.77-7.91-2.81-2.09-1.88-3.13-4.24-3.13-7.1s1.04-5.23,3.11-7.12c2.07-1.89,4.73-2.83,7.98-2.83,2.22,0,4.21.49,5.99,1.48s3.12,2.36,4.03,4.13c.65,1.25.98,3.27.98,6.07v7.03ZM412.4,841.85h2.67c0,.92.37,1.64,1.11,2.16.64.46,1.62.69,2.93.69,2.48,0,3.81-.95,4-2.85h2.67c0,1.86-.62,3.34-1.87,4.42-1.09.94-2.69,1.42-4.8,1.42s-3.74-.48-4.85-1.44c-1.25-1.08-1.87-2.55-1.87-4.4Z"/>
    <path class="st0" d="M454.78,842.46v16.12c0,1.72-.08,3-.24,3.83-.16.83-.4,1.57-.74,2.22-.91,1.75-2.27,3.12-4.06,4.11-1.8.99-3.8,1.48-6,1.48-3.27,0-5.94-.94-8-2.83-2.06-1.89-3.09-4.29-3.09-7.2s1.03-5.28,3.1-7.18c2.06-1.9,4.73-2.85,7.99-2.85h.83c.49.05,1.22.15,2.19.31v6.36l-1.57-.35c-.33-.07-.73-.11-1.19-.11-1.32,0-2.36.35-3.12,1.05-.76.7-1.14,1.63-1.14,2.78s.34,2.06,1.03,2.74c.73.72,1.74,1.09,3.03,1.09,2.75,0,4.12-1.43,4.12-4.3v-17.25h6.87Z"/>
    <path class="st0" d="M472.89,869.87v-9.27c0-2.88-1.42-4.32-4.25-4.32-1.22,0-2.19.37-2.92,1.12-.67.71-1,1.61-1,2.71,0,1.18.38,2.12,1.13,2.82.75.7,1.8,1.05,3.13,1.05.42,0,.79-.04,1.11-.11l1.65-.39v6.34l-1.61.23-1.41.08c-3.03.17-5.68-.78-7.95-2.83-2.09-1.87-3.13-4.27-3.13-7.19s1.03-5.27,3.1-7.17c2.06-1.9,4.73-2.85,7.99-2.85,2.2,0,4.2.5,5.99,1.49,1.79,1,3.15,2.37,4.08,4.12.65,1.24.98,3.26.98,6.07v8.12h-6.87Z"/>
    <path class="st0" d="M482.88,864.38h8.33c.84,0,1.26-.25,1.26-.75,0-.32-.2-.58-.61-.77l-3.22-1.19c-3.59-1.33-5.39-3.27-5.39-5.84,0-1.84.8-3.23,2.41-4.17,1.39-.8,3.18-1.21,5.37-1.21h7.52v5.23h-7.43c-.71,0-1.06.25-1.06.75,0,.34.19.59.59.73l3.06,1.15c4.01,1.51,6.02,3.52,6.02,6.03,0,1.94-.91,3.43-2.72,4.48-1.22.7-3.49,1.05-6.82,1.05h-7.3v-5.49ZM486.3,878.26v-2.43c1.27.28,2.41.5,3.41.65.81.11,1.53.17,2.15.17,1.45,0,2.17-.48,2.17-1.44,0-.87-.88-1.3-2.63-1.3h-1.59l1.5-6.13h2.16s-.93,3.81-.93,3.81h.2c3.39,0,5.08,1.23,5.08,3.7s-1.91,3.79-5.74,3.79c-1.19,0-2.56-.15-4.13-.46-.52-.1-1.07-.22-1.65-.36Z"/>
    <path class="st0" d="M537.74,862.65c-1.12,2.32-2.67,4.14-4.67,5.46-2.12,1.4-4.55,2.11-7.3,2.11-3.07,0-5.69-.98-7.87-2.94-2.17-1.96-3.26-4.34-3.26-7.13s1.09-5.18,3.28-7.12c2.19-1.94,4.8-2.91,7.85-2.91,4.56,0,8.03,2.04,10.41,6.1l-10.67,6.4-2.68-3.56,5.78-3.54c-.74-.43-1.55-.65-2.44-.65-1.42,0-2.6.48-3.54,1.45-.91.92-1.37,2.01-1.37,3.27s.44,2.39,1.32,3.31c.93.98,2.11,1.47,3.54,1.47,2.62,0,4.74-1.32,6.35-3.96l5.26,2.24Z"/>
    <path class="st0" d="M561.37,868.78c0,3.16-1,5.59-2.99,7.27-1.99,1.68-4.79,2.53-8.4,2.53-2.65,0-5.24-.29-7.76-.86v-5.9c2.61.71,4.89,1.07,6.84,1.07,2.13,0,3.59-.39,4.38-1.17.71-.73,1.07-2.05,1.07-3.98v-7.15c0-2.88-1.4-4.32-4.21-4.32-1.22,0-2.19.38-2.92,1.13-.67.71-1,1.62-1,2.71,0,1.18.38,2.13,1.13,2.83s1.8,1.05,3.13,1.05c.42,0,.79-.04,1.11-.11l1.65-.4v6.16l-1.7.23-1.37.08c-3,.17-5.64-.77-7.91-2.81-2.09-1.88-3.13-4.24-3.13-7.1s1.04-5.23,3.11-7.12c2.07-1.89,4.73-2.83,7.98-2.83,2.22,0,4.21.49,5.99,1.48s3.12,2.36,4.03,4.13c.65,1.25.98,3.27.98,6.07v7.03ZM543.96,841.85h2.67c0,.92.37,1.64,1.11,2.16.64.46,1.62.69,2.93.69,2.48,0,3.81-.95,4-2.85h2.67c0,1.86-.62,3.34-1.87,4.42-1.09.94-2.69,1.42-4.8,1.42s-3.74-.48-4.85-1.44c-1.25-1.08-1.87-2.55-1.87-4.4Z"/>
    <path class="st0" d="M564.65,845.22c0-.98.39-1.82,1.18-2.51s1.74-1.03,2.86-1.03,2.05.35,2.85,1.04c.8.7,1.19,1.53,1.19,2.5s-.39,1.84-1.17,2.53c-.78.69-1.74,1.03-2.87,1.03s-2.09-.35-2.87-1.04c-.78-.7-1.17-1.53-1.17-2.52ZM565.17,869.87v-19.41h7.04v19.41h-7.04Z"/>
    <path class="st0" d="M576.17,845.71h6.91v4.75h5.46v5.69h-5.46v6.13c0,1.25.77,1.88,2.3,1.88h3.15v5.72h-2.57c-3.26,0-5.69-.61-7.28-1.84-1.68-1.3-2.52-3.37-2.52-6.2v-16.12Z"/>
    <path class="st0" d="M591.45,845.22c0-.98.39-1.82,1.18-2.51.79-.69,1.74-1.03,2.86-1.03s2.05.35,2.85,1.04c.8.7,1.19,1.53,1.19,2.5s-.39,1.84-1.17,2.53c-.78.69-1.74,1.03-2.87,1.03s-2.09-.35-2.87-1.04c-.78-.7-1.17-1.53-1.17-2.52ZM591.97,869.87v-19.41h7.04v19.41h-7.04Z"/>
    <path class="st0" d="M602.88,869.87v-10.24c0-2.71.79-4.93,2.37-6.68,1.72-1.91,4.08-2.87,7.06-2.87,2.58,0,4.75.85,6.5,2.55,1.84-1.7,3.95-2.55,6.33-2.55,3.07,0,5.48.93,7.24,2.79,1.64,1.75,2.46,4,2.46,6.76v10.24h-6.87v-11.18c0-.78-.26-1.43-.77-1.95s-1.2-.78-2.07-.78-1.54.26-2.08.79c-.53.53-.8,1.18-.8,1.94v11.18h-6.8v-11.18c0-.78-.27-1.43-.8-1.95-.54-.52-1.24-.78-2.11-.78s-1.54.26-2.06.79c-.52.53-.78,1.18-.78,1.94v11.18h-6.8Z"/>
  </g>
</svg>